PathFileType  4	(X/Y/Z) C:\Users\antoi\Documents\MyRepositories\mobilecap\ResultsAnalysis
DataRate	CameraRate	NumFrames	NumMarkers	Units	OrigDataRate	OrigDataStartFrame	OrigNumFrames
100.0	100.0	4	51	mm	100.0	1	1318
Frame#	Time	r_knee			r_shank_antsup			r_ankle			r_calc			r_5meta			r_toe			L_knee			L_shank_antsup			L_ankle			L_calc			L_5meta			L_toe			r_sh2			r_sh3			r_sh4			L_sh2			L_sh3			r_thigh1			r_thigh2			r_thigh3			r_thigh4			r_thigh5			L_thigh1			L_thigh2			L_thigh3			L_thigh4			r.ASIS			r.PSIS			L.ASIS			L.PSIS			C7			R_Shoulder			L_Shoulder			R_Sternum			L_Sternum			R_humerus			R_elbow_med			R_elbow_lat			R_forearm			R_wrist_radius			R_wrist_ulna			L_humerus			L_elbow_med			L_elbow_lat			L_forearm			L_wrist_radius			L_wrist_ulna			R_HJC			L_HJC			R_HJC_reg			L_HJC_reg			
		X1	Y1	Z1	X2	Y2	Z2	X3	Y3	Z3	X4	Y4	Z4	X5	Y5	Z5	X6	Y6	Z6	X7	Y7	Z7	X8	Y8	Z8	X9	Y9	Z9	X10	Y10	Z10	X11	Y11	Z11	X12	Y12	Z12	X13	Y13	Z13	X14	Y14	Z14	X15	Y15	Z15	X16	Y16	Z16	X17	Y17	Z17	X18	Y18	Z18	X19	Y19	Z19	X20	Y20	Z20	X21	Y21	Z21	X22	Y22	Z22	X23	Y23	Z23	X24	Y24	Z24	X25	Y25	Z25	X26	Y26	Z26	X27	Y27	Z27	X28	Y28	Z28	X29	Y29	Z29	X30	Y30	Z30	X31	Y31	Z31	X32	Y32	Z32	X33	Y33	Z33	X34	Y34	Z34	X35	Y35	Z35	X36	Y36	Z36	X37	Y37	Z37	X38	Y38	Z38	X39	Y39	Z39	X40	Y40	Z40	X41	Y41	Z41	X42	Y42	Z42	X43	Y43	Z43	X44	Y44	Z44	X45	Y45	Z45	X46	Y46	Z46	X47	Y47	Z47	X48	Y48	Z48	X49	Y49	Z49	X50	Y50	Z50	X51	Y51	Z51	

1	0.00000000	-226.75726	501.55314	-494.49971	-188.70492	435.48814	-493.14299	-266.42595	102.43340	-423.77133	-334.06289	64.65263	-453.59644	-162.75555	44.41618	-381.40279	-115.00967	69.38820	-438.06733	-226.17097	497.55679	-934.71180	-201.85890	410.67741	-961.17617	-273.66016	103.10849	-997.04443	-336.70653	62.65302	-954.75910	-169.47517	40.05701	-1047.89526	-126.81096	62.89962	-994.33748	-216.17599	332.35404	-446.62714	-266.21495	455.58660	-472.15839	-286.97965	346.60048	-444.74448	-290.13093	424.69067	-953.09846	-298.80891	305.79227	-984.99460	-165.95378	815.45381	-520.80732	-172.21491	705.53678	-505.83496	-231.33262	686.70131	-482.81746	-280.18113	819.32004	-521.04324	-280.57667	702.41917	-505.94552	-195.52229	769.61293	-936.86785	-185.74611	632.88473	-937.80031	-298.72016	760.49164	-884.86768	-285.57663	621.11804	-899.45675	-140.57112	967.45875	-586.80853	-322.00275	1010.18162	-677.20572	-121.81856	944.16023	-837.58374	-321.53565	1009.03880	-778.92896	-299.68313	1416.10840	-750.88458	-219.87373	1388.87977	-566.40339	-217.39619	1384.20972	-920.69005	-161.46879	1385.45911	-718.54109	-156.66134	1385.19910	-759.58698	-237.72983	1259.80264	-494.93361	-293.88468	1045.40369	-537.93714	-299.79934	1073.98353	-460.85951	-175.32443	1132.95607	-469.64237	-61.85987	1181.92604	-494.77646	-42.13642	1158.93374	-474.95399	-216.21006	1266.36975	-977.09053	-258.26027	1035.24746	-897.64192	-271.96718	1064.72804	-978.74830	-179.73547	1120.40735	-977.40076	-47.01199	1180.15698	-965.52400	-33.39373	1152.16223	-979.47615	-219.04041	889.99052	-610.61499	-207.17877	877.17625	-816.34617	-207.85810	886.02982	-621.11527	-207.09277	884.15733	-787.78754	
2	0.01000000	-226.76259	501.50456	-494.51566	-188.60958	435.45216	-493.10421	-266.34524	102.46138	-423.73004	-334.03846	64.67740	-453.58467	-162.76214	44.33617	-381.45081	-114.99555	69.41015	-438.08197	-226.15943	497.54049	-934.66612	-201.90111	410.73959	-961.25483	-273.64185	103.12229	-997.04749	-336.72842	62.65936	-954.78285	-169.48515	40.08706	-1047.92932	-126.82847	62.87980	-994.26231	-216.03280	332.48534	-446.47297	-266.23955	455.53276	-472.19821	-287.04902	346.56054	-444.80516	-290.13301	424.70437	-953.09770	-298.77131	305.74349	-984.97976	-165.88626	815.46481	-520.83753	-172.10662	705.50476	-505.90715	-231.25717	686.71799	-482.80911	-280.17702	819.16186	-521.05868	-280.47397	702.43497	-505.84512	-195.52716	769.61340	-936.87472	-185.74351	632.89500	-937.81317	-298.71282	760.49714	-884.86086	-285.52355	621.23407	-899.53631	-140.56641	967.44055	-586.81376	-322.08307	1010.21140	-677.05740	-121.80184	944.13784	-837.53923	-321.52530	1009.01245	-778.98427	-299.65216	1416.07586	-750.92087	-219.86584	1388.94282	-566.46443	-217.36310	1384.20454	-920.74099	-161.45834	1385.46176	-718.62461	-156.65011	1385.18487	-759.60836	-237.75215	1259.81117	-495.00624	-293.91430	1045.40897	-537.96230	-299.83142	1073.98625	-460.86908	-175.30905	1133.02046	-469.63501	-61.93399	1181.89138	-494.81692	-42.21641	1158.84184	-475.04408	-216.18649	1266.35828	-977.09462	-258.34152	1035.26310	-897.76243	-271.99863	1064.72371	-978.88453	-179.74275	1120.36931	-977.38514	-47.01118	1180.13680	-965.56352	-33.39223	1152.13388	-979.50097	-219.05586	889.98502	-610.57849	-207.19500	877.16266	-816.30921	-207.95444	886.09490	-621.14281	-207.04268	884.13482	-787.78153	
3	0.02000000	-226.72106	501.49021	-494.47628	-188.56471	435.54267	-493.05716	-266.29700	102.49928	-423.70916	-334.07628	64.66620	-453.57955	-162.75910	44.33814	-381.41689	-115.00060	69.39329	-438.07843	-226.14962	497.54573	-934.69310	-201.88074	410.77052	-961.30759	-273.63496	103.12949	-997.04787	-336.74641	62.64877	-954.77870	-169.49114	40.09860	-1047.94708	-126.83317	62.86369	-994.23057	-215.93355	332.54888	-446.41596	-266.18606	455.56229	-472.17075	-287.09128	346.53161	-444.90582	-290.13070	424.70739	-953.13380	-298.73838	305.73625	-985.00062	-165.80256	815.53470	-520.84836	-171.98537	705.59589	-505.94125	-231.18993	686.68123	-482.81253	-280.20249	819.11521	-521.10967	-280.48375	702.44872	-505.82036	-195.51715	769.62100	-936.88072	-185.74333	632.90430	-937.80645	-298.72370	760.51388	-884.91566	-285.51176	621.25391	-899.60177	-140.60190	967.45515	-586.85059	-322.05261	1010.19997	-677.11393	-121.82807	944.13899	-837.57779	-321.51360	1009.00423	-778.97942	-299.60089	1416.08430	-750.99684	-219.86239	1388.97699	-566.52343	-217.35571	1384.15880	-920.78368	-161.45022	1385.44991	-718.70187	-156.64390	1385.17903	-759.63800	-237.77075	1259.81512	-495.07749	-293.98537	1045.39241	-538.01657	-299.89897	1073.92698	-460.91525	-175.34386	1133.06782	-469.62370	-61.98338	1181.87546	-494.84502	-42.29124	1158.85308	-475.07753	-216.16507	1266.32194	-977.12708	-258.43812	1035.31756	-897.84726	-272.02647	1064.70933	-979.00578	-179.75746	1120.30969	-977.33330	-47.02240	1180.11282	-965.60372	-33.41037	1152.08875	-979.50672	-219.05709	889.98833	-610.60688	-207.20061	877.15827	-816.33738	-207.95321	886.09330	-621.16693	-207.07166	884.13727	-787.80827	
4	0.03000000	-226.64691	501.50480	-494.40520	-188.59093	435.77733	-492.99220	-266.29808	102.49954	-423.70840	-334.11243	64.65219	-453.58064	-162.75719	44.36602	-381.34920	-115.01111	69.35025	-438.05334	-226.12991	497.56112	-934.74977	-201.80242	410.75772	-961.32217	-273.63838	103.13245	-997.04710	-336.74085	62.62792	-954.73530	-169.48211	40.08865	-1047.95379	-126.82294	62.85753	-994.24451	-215.88586	332.56095	-446.42898	-266.10444	455.61286	-472.13545	-287.09493	346.48807	-445.00483	-290.12111	424.71049	-953.18558	-298.72236	305.75530	-985.03115	-165.70087	815.59589	-520.82672	-171.91130	705.67947	-505.91017	-231.16234	686.60232	-482.81412	-280.19988	819.20827	-521.12984	-280.55124	702.46380	-505.86770	-195.50177	769.62895	-936.87493	-185.71893	632.87271	-937.75695	-298.73391	760.52093	-884.95394	-285.50836	621.22499	-899.62866	-140.68553	967.47227	-586.90777	-322.02477	1010.21852	-677.15920	-121.86869	944.13920	-837.62228	-321.56536	1009.00607	-778.92231	-299.55976	1416.11335	-751.08215	-219.87222	1388.96173	-566.60500	-217.36717	1384.11627	-920.83263	-161.43801	1385.42132	-718.77031	-156.62055	1385.16572	-759.65240	-237.79805	1259.80748	-495.15307	-294.06861	1045.35689	-538.06210	-299.98612	1073.88902	-461.00345	-175.41929	1133.10400	-469.62286	-62.04090	1181.86102	-494.85486	-42.35282	1158.90111	-475.08387	-216.14025	1266.26116	-977.17672	-258.53037	1035.41041	-897.87411	-272.03875	1064.68725	-979.08748	-179.76915	1120.26781	-977.30648	-47.04226	1180.09496	-965.63298	-33.44596	1152.02805	-979.48789	-219.08728	890.00128	-610.62682	-207.25623	877.16288	-816.35827	-207.95480	886.14194	-621.14898	-207.20254	884.15674	-787.78543	
